<svg width="128" height="128" viewBox="0 0 128 128" fill="none" xmlns="http://www.w3.org/2000/svg">
<path d="M10.5 95.1373V34.6081L62.5 64.8627L62.5 125.392L10.5 95.1373ZM65.5 125.392L65.5 64.8627L117.5 34.6081V95.1373L65.5 125.392ZM11.9827 32L64 1.73541L116.017 32L64 62.2646L11.9827 32Z" stroke="black" stroke-width="3"/>
<path fill-rule="evenodd" clip-rule="evenodd" d="M62.2576 51.2987C62.7085 50.574 63.2893 49.9345 64 49.38V47.0034C66.0401 47.046 67.7652 47.4855 69.1755 48.3218C70.6905 49.1736 71.8268 50.3044 72.5843 51.7143C73.371 53.1242 73.8372 54.6662 73.9828 56.3404H67.034C66.8009 55.2537 66.393 54.4459 65.8103 53.9172C65.3568 53.4829 64.7534 53.2176 64 53.1213V58.9435C64.4456 58.8823 64.9034 58.8518 65.3733 58.8518C68.2285 58.8518 70.5157 59.7623 72.2347 61.5834C73.9828 63.4045 74.8569 65.9452 74.8569 69.2056C74.8569 71.3498 74.4199 73.2296 73.5458 74.8451C72.7009 76.4606 71.448 77.7236 69.7873 78.6342C68.1618 79.5413 66.2327 79.9966 64 80V77.6256C63.1715 77.0101 62.4604 76.2818 61.8668 75.4408C60.8247 73.9355 60.3036 72.1553 60.3036 70.1C60.3036 68.3053 60.7234 66.7566 61.5628 65.4539C62.1847 64.4676 62.997 63.6481 64 62.9953V61.6708C62.0279 60.2298 61.0418 58.1908 61.0418 55.5539C61.0418 53.9908 61.4471 52.5724 62.2576 51.2987ZM64 64.8127V73.6026C65.1251 73.5415 66.0199 73.1626 66.6844 72.4659C67.4419 71.6729 67.8207 70.6008 67.8207 69.2497C67.8207 67.8691 67.4565 66.7824 66.7281 65.9893C66.0758 65.2791 65.1664 64.8869 64 64.8127ZM36.1924 72.3579C36.2792 72.3 35.8306 72.6618 34.8463 73.4434V78.9579H56.6437V72.9224H44.92C48.1911 70.4039 50.8832 67.8276 52.9963 65.1934C55.1095 62.5303 56.1661 59.65 56.1661 56.5526C56.1661 53.7158 55.2832 51.4145 53.5174 49.6487C51.7806 47.8829 49.1898 47 45.745 47C43.7477 47 41.924 47.3908 40.274 48.1724C38.6529 48.9539 37.3358 50.1697 36.3227 51.8197C35.3385 53.4697 34.8174 55.525 34.7595 57.9855H41.924C41.924 56.4803 42.2279 55.3224 42.8358 54.5118C43.4727 53.6724 44.3411 53.2526 45.4411 53.2526C46.5411 53.2526 47.3661 53.5855 47.9161 54.2513C48.4661 54.9171 48.7411 55.8434 48.7411 57.0303C48.7411 58.5934 48.1766 60.2 47.0477 61.85C45.9187 63.5 44.5292 65.0776 42.8792 66.5829C41.2582 68.0882 39.0292 70.0132 36.1924 72.3579ZM18 47.6947V54.5987H22.2987V79.3921H30.0276V47.6947H18ZM79.2587 74.0961V68.016L93.069 48.1015H101.416V67.5754H105V74.0961H101.416V79.8238H93.943V74.0961H79.2587ZM94.4675 56.3845L87.1253 67.5754H94.4675V56.3845Z" fill="black"/>
</svg>
